<?xml version="1.0" standalone="no"?>
<!DOCTYPE svg PUBLIC "-//W3C//DTD SVG 20010904//EN"
 "http://www.w3.org/TR/2001/REC-SVG-20010904/DTD/svg10.dtd">
<svg version="1.0" xmlns="http://www.w3.org/2000/svg"
 width="1024.000000pt" height="1024.000000pt" viewBox="0 0 1024.000000 1024.000000"
 preserveAspectRatio="xMidYMid meet">

<g transform="translate(0.000000,1024.000000) scale(0.100000,-0.100000)"
fill="#000000" stroke="none">
<path d="M5040 8589 c-482 -33 -977 -180 -1376 -409 -431 -247 -799 -601
-1065 -1025 -367 -584 -552 -1407 -510 -2269 33 -687 152 -1182 402 -1677 143
-283 299 -505 504 -717 411 -426 942 -702 1580 -821 537 -101 1173 -91 1640
25 857 212 1510 781 1834 1596 78 198 156 457 149 499 -3 18 -55 36 -433 144
-236 68 -564 162 -729 210 -164 47 -299 85 -300 83 -2 -2 -13 -46 -26 -98 -76
-312 -214 -578 -403 -777 -150 -157 -334 -276 -520 -337 -355 -116 -799 -84
-1131 80 -131 66 -222 133 -333 247 -335 345 -499 870 -519 1662 -13 491 54
941 191 1292 142 363 378 638 673 787 97 49 254 101 372 122 132 25 448 25
578 1 350 -66 642 -249 821 -514 96 -144 188 -375 213 -538 10 -64 14 -75 31
-75 11 0 115 21 231 46 659 143 1140 247 1209 261 91 19 88 9 52 174 -117 530
-313 898 -658 1242 -566 561 -1488 854 -2477 786z"/>
</g>
</svg>
